:SAMPLES-PER-SECOND 30
:FULLY-SPECIFIED
:DEGREES
108
root  -3.45588 37.9958 -5.29196 71.5983 -87.7695 -75.0519
RightUpLeg  -3.05725 -7.86823 4.83251
RightLeg  35.4256 -4.04685 -3.36862
RightFoot  -24.8037 -0.614025 -3.79944
RightToes  -1.16417e-010 0 -3.6325e-017
Spine  9.12621 0.545988 14.1888
Spine1  6.10157 3.63735 -5.97806
HEad  -19.0845 0.69486 -4.10863
LeftShoulder1  8.78779 -12.0802 -49.2226
LeftArm  0.509608 28.2476 -24.946
LeftForeArm  171.783 -63.0174 -160.817
LeftHand  -0.244104 0.0205437 5.32207
RightShoulder  6.64588 10.0697 42.6472
RightArm  2.54455 -12.0239 30.4533
RightForeArm  143.569 66.131 154.869
RightHand  0.350472 -11.6151 -7.4193
LeftUpLeg  -19.5379 2.26067 4.71592
LeftLeg  61.525 5.14224 10.7298
LeftFoot  -10.1027 0.0800643 -1.82211
LeftToes  -1.16419e-010 -9.34044e-011 -2.32061e-011
109
root  -5.67024 38.857 -5.40745 0.610199 -88.7462 -3.10065
RightUpLeg  2.46341 -9.12198 1.42713
RightLeg  29.2055 -2.58613 -1.82856
RightFoot  -21.3918 -0.31495 -1.81091
RightToes  -1.16417e-010 0 -3.6325e-017
Spine  7.54606 2.26044 13.2433
Spine1  5.68696 5.74768 -9.41829
HEad  -18.1246 -2.21166 -0.72148
LeftShoulder1  8.39631 -11.7733 -47.9646
LeftArm  3.21134 32.0605 -21.7609
LeftForeArm  172.583 -61.4072 -162.1
LeftHand  -0.244104 0.0205437 5.32207
RightShoulder  6.49652 9.84257 42.3838
RightArm  3.73982 -13.6535 33.8279
RightForeArm  148.23 64.0144 157.552
RightHand  0.301315 -12.2314 -5.99543
LeftUpLeg  -20.8272 5.04827 0.747211
LeftLeg  51.8995 6.72587 9.59305
LeftFoot  -10.6019 0.083412 -2.95249
LeftToes  -1.16419e-010 -9.34044e-011 -2.32061e-011
110
root  -7.92064 39.8003 -5.4623 -38.8929 -86.8158 37.6624
RightUpLeg  6.81324 -11.8909 -2.02965
RightLeg  24.0129 0.315165 -0.0755444
RightFoot  -14.3568 -0.0569574 2.23562
RightToes  -1.16417e-010 0 -3.6325e-017
Spine  5.43975 3.58541 12.0693
Spine1  5.41316 7.12274 -11.7984
HEad  -16.9103 -4.42699 1.42913
LeftShoulder1  8.00099 -11.4024 -46.826
LeftArm  4.84277 35.7321 -19.5159
LeftForeArm  174.133 -59.8747 -163.275
LeftHand  -0.244104 0.0205437 5.32207
RightShoulder  6.39776 9.59974 42.5195
RightArm  6.8906 -15.2439 35.4051
RightForeArm  150.474 62.4813 159.132
RightHand  0.172925 -12.82 -3.69486
LeftUpLeg  -20.9952 8.59744 -3.27125
LeftLeg  39.7281 6.85981 6.50626
LeftFoot  -10.0766 0.100099 -3.55706
LeftToes  -1.16419e-010 -9.34044e-011 -2.32061e-011
111
root  -10.1437 40.5372 -5.47141 -34.3953 -85.1484 34.2905
RightUpLeg  9.06454 -14.1609 -4.59924
RightLeg  22.3627 3.31673 1.3066
RightFoot  -4.91714 -0.354453 5.88338
RightToes  -1.16417e-010 0 -3.6325e-017
Spine  3.14237 4.3968 10.6834
Spine1  5.81459 7.75621 -12.4979
HEad  -15.7107 -5.83133 2.12749
LeftShoulder1  7.89524 -11.4287 -46.1069
LeftArm  4.50394 39.6451 -18.8449
LeftForeArm  175.491 -58.4846 -164.251
LeftHand  -0.244104 0.0205437 5.32207
RightShoulder  6.36619 9.63555 42.1746
RightArm  10.779 -16.1606 36.1854
RightForeArm  154.35 61.7996 160.055
RightHand  -0.110633 -13.4613 0.472444
LeftUpLeg  -20.4243 12.0257 -6.9394
LeftLeg  27.7689 4.42274 2.94081
LeftFoot  -9.7279 0.117993 -4.32037
LeftToes  -1.16419e-010 -9.34044e-011 -2.32061e-011
112
root  -12.2655 40.8836 -5.46703 -30.1885 -84.1081 30.413
RightUpLeg  8.8396 -12.4659 -5.05897
RightLeg  25.8707 3.48271 1.59363
RightFoot  2.83834 -0.881406 7.31482
RightToes  -1.16417e-010 0 -3.6325e-017
Spine  2.01148 4.69274 9.44565
Spine1  6.37599 7.90944 -12.3479
HEad  -14.9523 -6.58254 2.25502
LeftShoulder1  8.09072 -11.8766 -45.8664
LeftArm  2.41089 42.9776 -19.624
LeftForeArm  175.488 -57.4186 -164.864
LeftHand  -0.244104 0.0205437 5.32207
RightShoulder  6.46516 9.99113 41.6662
RightArm  14.4223 -16.4318 36.4261
RightForeArm  159.805 61.6662 160.682
RightHand  -0.411793 -13.6778 4.57799
LeftUpLeg  -19.0389 13.7515 -9.3298
LeftLeg  18.5852 1.42774 0.495511
LeftFoot  -10.5142 0.103494 -5.5204
LeftToes  -1.16419e-010 -9.34044e-011 -2.32061e-011
113
root  -14.2632 40.7703 -5.44491 -28.2639 -83.8391 27.7864
RightUpLeg  6.91513 -8.09568 -4.38601
RightLeg  34.2031 0.977443 0.412734
RightFoot  5.89869 -1.10447 7.55068
RightToes  -1.16417e-010 0 -3.6325e-017
Spine  2.72337 4.62046 8.56812
Spine1  6.6 7.79037 -12.0418
HEad  -14.8703 -6.72753 2.32867
LeftShoulder1  8.29681 -12.3408 -45.6534
LeftArm  -0.636484 44.9925 -21.9124
LeftForeArm  175.347 -56.6625 -165.264
LeftHand  -0.244104 0.0205437 5.32207
RightShoulder  6.62742 10.3658 41.5498
RightArm  17.795 -15.8506 35.7879
RightForeArm  162.466 61.8701 160.785
RightHand  -0.507722 -13.2023 6.2105
LeftUpLeg  -16.7684 10.8445 -9.18401
LeftLeg  13.2982 2.42747 -1.21433
LeftFoot  -10.558 0.10197 -5.67925
LeftToes  -1.16419e-010 -9.34044e-011 -2.32061e-011
114
root  -16.1976 40.2588 -5.38395 -32.3338 -84.1518 30.519
RightUpLeg  4.20452 -4.05048 -4.73027
RightLeg  45.1685 -1.83883 -2.31527
RightFoot  5.834 -1.10071 7.54707
RightToes  -1.16417e-010 0 -3.6325e-017
Spine  4.58815 4.34421 7.41515
Spine1  6.52396 7.4107 -11.37
HEad  -15.5256 -6.23184 2.09724
LeftShoulder1  8.25207 -12.4431 -45.0931
LeftArm  -3.61153 45.6111 -25.2517
LeftForeArm  176.692 -55.8896 -165.779
LeftHand  -0.244104 0.0205437 5.32207
RightShoulder  6.68776 10.5001 41.5246
RightArm  20.8794 -14.5556 34.8774
RightForeArm  160.627 62.4944 160.123
RightHand  -0.498193 -12.8293 6.40463
LeftUpLeg  -14.8499 7.58178 -9.12492
LeftLeg  12.7304 4.33106 -1.55187
LeftFoot  -8.32104 0.103433 -2.61999
LeftToes  -1.16419e-010 -9.34044e-011 -2.32061e-011
115
root  -18.1095 39.5192 -5.29015 -44.894 -84.2967 41.5818
RightUpLeg  0.898704 -0.82737 -6.85153
RightLeg  56.0998 -3.23271 -5.5593
RightFoot  5.0758 -0.901961 6.48084
RightToes  -1.16417e-010 0 -3.6325e-017
Spine  6.90861 3.83637 5.35355
Spine1  6.26523 6.65612 -10.1721
HEad  -17.1837 -5.29233 1.42994
LeftShoulder1  8.00674 -12.0468 -44.8617
LeftArm  -5.3743 44.068 -27.5729
LeftForeArm  177.896 -55.616 -166.02
LeftHand  -0.244104 0.0205437 5.32207
RightShoulder  6.68232 10.4878 41.5282
RightArm  22.7354 -13.3384 34.6131
RightForeArm  157.519 64.2641 158.283
RightHand  -0.55172 -12.9447 7.08518
LeftUpLeg  -14.3613 9.49107 -11.6312
LeftLeg  17.6403 2.29437 0.391215
LeftFoot  -6.50205 -0.0915685 3.41251
LeftToes  -1.16419e-010 -9.34044e-011 -2.32061e-011
116
root  -19.9559 38.75 -5.19963 -58.6342 -83.6844 53.95
RightUpLeg  -3.16895 1.42465 -9.99472
RightLeg  65.214 -3.21175 -8.19048
RightFoot  3.61879 -0.459383 3.65006
RightToes  -1.16417e-010 0 -3.6325e-017
Spine  9.36982 3.05751 2.73895
Spine1  6.01655 5.51736 -8.75226
HEad  -19.7503 -4.36196 0.850171
LeftShoulder1  7.86313 -11.4085 -45.9795
LeftArm  -5.25927 39.1847 -26.9176
LeftForeArm  176.594 -57.2615 -165.021
LeftHand  -0.244104 0.0205437 5.32207
RightShoulder  6.86295 10.5631 42.4823
RightArm  22.0052 -13.2365 34.7557
RightForeArm  155.827 68.0157 154.045
RightHand  -0.593596 -12.9388 7.70515
LeftUpLeg  -14.4227 8.74763 -13.5286
LeftLeg  25.7329 4.26133 2.69341
LeftFoot  -8.79388 -0.127513 8.31855
LeftToes  -1.16419e-010 -9.34044e-011 -2.32061e-011
117
root  -21.7358 38.2218 -5.13487 -65.7665 -82.8505 60.1621
RightUpLeg  -7.92077 2.30706 -12.8657
RightLeg  70.9995 -3.14899 -10.9987
RightFoot  1.28471 -0.079909 0.818272
RightToes  -1.16417e-010 0 -3.6325e-017
Spine  11.2408 2.19577 0.267276
Spine1  6.21574 4.18851 -7.33359
HEad  -22.0742 -3.62743 0.792701
LeftShoulder1  8.04034 -11.1078 -48.0145
LeftArm  -3.96043 31.8815 -24.5957
LeftForeArm  174.328 -60.8122 -162.653
LeftHand  -0.244104 0.0205437 5.32207
RightShoulder  7.25016 10.7012 44.5599
RightArm  18.3659 -15.1425 34.4671
RightForeArm  153.506 72.7179 146.489
RightHand  -0.534025 -12.9268 6.85878
LeftUpLeg  -13.5675 8.17074 -14.4236
LeftLeg  32.377 6.17629 4.53225
LeftFoot  -14.1151 0.294986 9.15691
LeftToes  -1.16419e-010 -9.34044e-011 -2.32061e-011
